HIERARCHY
ROOT Hips
{
    OFFSET 0.000000 0.000000 0.000000
    CHANNELS 6 Xposition Yposition Zposition Zrotation Xrotation Yrotation
        JOINT Chest
        {
            OFFSET -0.000000 26.978363 -0.000000
            CHANNELS 3 Zrotation Xrotation Yrotation
            JOINT Neck
            {
                OFFSET -0.000000 19.720629 0.000000
                CHANNELS 3 Zrotation Xrotation Yrotation
                JOINT Head
                {
                    OFFSET -0.000000 9.655557 0.000000
                    CHANNELS 3 Zrotation Xrotation Yrotation
                    End Site
                    {
                        OFFSET -0.000000 14.922232 0.000000
                    }
                }
            }
            JOINT LeftCollar
            {
                OFFSET -0.000000 19.720629 0.000000
                CHANNELS 3 Zrotation Xrotation Yrotation
                JOINT LeftShoulder
                {
                    OFFSET 17.555553 -0.000000 0.000000
                    CHANNELS 3 Zrotation Xrotation Yrotation
                    JOINT LeftElbow
                    {
                        OFFSET 22.589397 0.000000 0.000000
                        CHANNELS 3 Zrotation Xrotation Yrotation
                        JOINT LeftWrist
                        {
                            OFFSET 20.401022 0.000000 0.000000
                            CHANNELS 3 Zrotation Xrotation Yrotation
                            End Site
                            {
                                OFFSET 0.000000 -13.166666 0.000000
                            }
                        }
                    }
                }
            }
            JOINT RightCollar
            {
                OFFSET -0.000000 19.720629 0.000000
                CHANNELS 3 Zrotation Xrotation Yrotation
                JOINT RightShoulder
                {
                    OFFSET -17.555553 0.000000 0.000000
                    CHANNELS 3 Zrotation Xrotation Yrotation
                    JOINT RightElbow
                    {
                        OFFSET -22.589397 0.000000 0.000000
                        CHANNELS 3 Zrotation Xrotation Yrotation
                        JOINT RightWrist
                        {
                            OFFSET -20.401022 0.000000 0.000000
                            CHANNELS 3 Zrotation Xrotation Yrotation
                            End Site
                            {
                                OFFSET -0.000000 -13.166666 0.000000
                            }
                        }
                    }
                }
            }
        }
    JOINT LeftHip
    {
        OFFSET 10.533332 0.000000 0.000000
        CHANNELS 3 Zrotation Xrotation Yrotation
        JOINT LeftKnee
        {
            OFFSET -0.000000 -40.048210 0.000000
            CHANNELS 3 Zrotation Xrotation Yrotation
            JOINT LeftAnkle
            {
                OFFSET -0.000000 -36.098888 0.000000
                CHANNELS 3 Zrotation Xrotation Yrotation
                End Site
                {
                    OFFSET -0.000000 -4.388888 14.922232
                }
            }
        }
    }
    JOINT RightHip
    {
        OFFSET -10.533332 0.000000 0.000000
        CHANNELS 3 Zrotation Xrotation Yrotation
        JOINT RightKnee
        {
            OFFSET -0.000000 -40.048210 0.000000
            CHANNELS 3 Zrotation Xrotation Yrotation
            JOINT RightAnkle
            {
                OFFSET -0.000000 -36.098888 0.000000
                CHANNELS 3 Zrotation Xrotation Yrotation
                End Site
                {
                    OFFSET -0.000000 -4.388888 14.922232
                }
            }
        }
    }
}
MOTION
Frames:    9
Frame Time:    0.010000
-15.435516    79.198990    -17.638515    -3.018744    6.215948    7.083021    0.263620    -4.592715    -1.486587    6.404014    3.203360    -3.702570    -2.516833    -14.742672    -3.854821    -29.183853    -2.277954    8.703908    44.206520    60.041752    -102.005028    25.105120    -13.805844    -57.061264    137.067566    36.961212    56.257965    12.991351    -0.740670    -6.328894    60.594971    16.087236    10.287703    42.568554    11.124287    27.265160    -97.870796    -52.476360    44.051350    10.105909    -19.480480    11.419355    13.503717    46.119923    -0.744750    -16.933676    -28.040442    -0.409474    -1.712137    -10.627438    -8.623129    -10.620602    32.951618    -2.483452    14.568684    -27.217844    9.412907    
-15.371883    79.473022    -17.525398    -2.833895    5.688512    8.150995    0.087638    -4.179829    -1.595661    6.452092    3.396672    -4.062182    -2.669634    -14.683716    -4.220847    -28.999126    -2.197352    8.351739    45.801395    59.858490    -103.562256    24.952038    -13.666501    -56.727890    137.899231    36.398952    55.858826    12.921246    -0.698460    -6.268444    60.785942    15.473212    10.007030    43.157833    10.979044    26.400240    -97.863754    -53.218300    44.566490    9.803280    -19.101799    11.725248    13.783933    45.448154    -0.627005    -16.494633    -26.734177    -1.255134    -1.873557    -9.725088    -8.433180    -10.111405    32.736362    -3.445374    14.464830    -26.437744    8.882189    
-15.270031    79.873726    -17.365677    -2.601026    5.160625    9.400656    -0.108992    -3.842402    -1.730413    6.524967    3.577891    -4.493220    -2.821653    -14.489822    -4.656133    -28.771439    -2.101530    7.968641    47.611275    59.608402    -105.369171    24.857874    -13.456176    -56.369003    138.553970    35.936401    55.666702    12.742529    -0.713326    -6.252611    61.139709    14.742793    9.535791    43.730057    10.819217    25.649536    -97.547379    -53.780598    45.288788    9.466151    -18.658022    11.954038    13.875057    44.593685    -0.503749    -15.896329    -25.190542    -2.133966    -2.104222    -8.550373    -8.188205    -9.382197    32.141453    -4.692130    14.441765    -25.483999    8.362370    
-15.132175    80.374054    -17.171953    -2.328297    4.663812    10.778639    -0.328122    -3.603918    -1.860450    6.620053    3.746968    -4.985719    -2.959535    -14.176128    -5.146302    -28.513027    -1.994280    7.581554    49.497215    59.286770    -107.283669    24.687918    -13.270665    -56.056641    139.337402    35.659237    55.513535    12.483648    -0.719405    -6.264848    61.593613    13.873049    8.947498    44.427788    10.659760    24.738392    -97.106735    -54.359097    46.107754    9.119923    -18.169182    12.100833    13.737718    43.613434    -0.376934    -15.132565    -23.558352    -2.977333    -2.382831    -7.167666    -7.949232    -8.535587    31.186085    -6.104414    14.504295    -24.395716    7.879849    
-14.960325    80.946854    -16.957191    -2.024699    4.223487    12.226726    -0.573862    -3.468067    -1.954629    6.725230    3.889010    -5.530461    -3.064295    -13.763301    -5.683089    -28.233879    -1.880833    7.200312    51.314880    58.900787    -109.159279    24.499968    -13.086520    -55.815006    140.067276    35.455906    55.370144    12.174614    -0.657246    -6.298079    62.092331    12.886481    8.350942    45.200153    10.466054    23.707275    -96.462929    -54.934361    47.058315    8.782156    -17.652597    12.177365    13.362073    42.556076    -0.244124    -14.227105    -21.972700    -3.737117    -2.692880    -5.653562    -7.769126    -7.669771    29.924829    -7.560936    14.649638    -23.200518    7.447748    
-14.756295    81.566170    -16.733873    -1.701014    3.857888    13.689587    -0.850600    -3.424337    -1.984989    6.833740    3.990989    -6.113441    -3.123663    -13.283702    -6.250031    -27.943493    -1.767909    6.835774    52.926380    58.465923    -110.850273    24.296534    -12.917206    -55.673458    140.798218    35.349800    55.183861    11.828098    -0.658703    -6.333325    62.633854    11.942152    7.706110    45.786697    10.242085    22.989609    -95.452110    -55.256664    48.155907    8.461997    -17.124193    12.206821    12.766245    41.459568    -0.097937    -13.228580    -20.545288    -4.385815    -3.024752    -4.089227    -7.691740    -6.859774    28.440859    -8.953639    14.865074    -21.920757    7.066375    
-14.521829    82.208191    -16.513439    -1.369816    3.578222    15.121782    -1.156673    -3.452344    -1.931032    6.930169    4.031173    -6.725729    -3.130695    -12.773608    -6.844379    -27.651619    -1.656723    6.477692    54.231556    58.004517    -112.252144    24.082621    -12.768730    -55.653427    141.522842    35.307159    54.907806    11.476050    -0.639405    -6.375591    63.138271    11.034749    7.125612    46.364342    10.019165    22.197437    -94.466187    -55.668766    49.144283    8.160115    -16.600225    12.215743    11.990245    40.351955    0.075418    -12.199020    -19.355627    -4.912855    -3.375948    -2.552793    -7.751221    -6.147733    26.833265    -10.198966    15.128516    -20.577951    6.727755    
-14.258805    82.851646    -16.305502    -1.044409    3.387976    16.492401    -1.486197    -3.528513    -1.782651    7.009463    4.000700    -7.354704    -3.093647    -12.278339    -7.455365    -27.367136    -1.550860    6.122426    55.168266    57.537498    -113.297653    23.861631    -12.657386    -55.752102    142.235931    35.282284    54.505718    11.135705    -0.629407    -6.416375    63.586941    10.265818    6.644424    46.791016    9.797336    21.610739    -93.448036    -56.028629    50.023598    7.870200    -16.096676    12.228843    11.088560    39.253708    0.293281    -11.197767    -18.445721    -5.315632    -3.748728    -1.110526    -7.970145    -5.543807    25.201765    -11.245274    15.416211    -19.193207    6.423369    
-13.969233    83.478043    -16.116844    -0.735874    3.281921    17.786354    -1.829363    -3.627295    -1.541286    7.066294    3.894788    -7.990394    -3.027278    -11.838686    -8.076702    -27.098471    -1.451201    5.759366    55.702896    57.088696    -113.950089    23.649410    -12.577694    -55.958553    142.898804    35.225990    53.969475    10.825345    -0.594407    -6.452590    63.946487    9.659346    6.321074    47.114227    9.594281    21.129156    -92.616867    -56.480232    50.646908    7.580498    -15.626593    12.269116    10.123889    38.180725    0.571657    -10.269492    -17.820028    -5.593388    -4.147449    0.191427    -8.356904    -5.035010    23.634060    -12.074413    15.711558    -17.786205    6.148504    
